<?xml version="1.0" standalone="no"?>
<!DOCTYPE svg PUBLIC "-//W3C//DTD SVG 20010904//EN"
 "http://www.w3.org/TR/2001/REC-SVG-20010904/DTD/svg10.dtd">
<svg version="1.0" xmlns="http://www.w3.org/2000/svg"
 width="700.000000pt" height="700.000000pt" viewBox="0 0 700.000000 700.000000"
 preserveAspectRatio="xMidYMid meet">
<metadata>
Created by potrace 1.11, written by Peter Selinger 2001-2013
</metadata>
<g transform="translate(0.000000,700.000000) scale(0.100000,-0.100000)"
fill="#000000" stroke="none">
<path d="M2953 6984 c-80 -21 -129 -49 -193 -112 -65 -63 -115 -156 -126 -231
-3 -25 -8 -53 -10 -62 -4 -14 -70 -16 -662 -16 -361 0 -680 -3 -709 -6 -64 -7
-185 -64 -234 -109 -62 -57 -113 -147 -136 -239 -9 -37 -10 -5777 0 -5839 25
-170 174 -327 342 -359 31 -7 883 -10 2290 -10 2194 0 2241 1 2300 20 156 51
282 195 302 346 4 26 7 1346 7 2933 0 2682 -1 2889 -17 2941 -54 181 -210 307
-392 318 -27 2 -340 4 -695 5 l-645 1 -6 58 c-9 86 -66 193 -135 257 -129 117
-145 120 -744 119 -383 0 -496 -3 -537 -15z m-766 -879 c10 -68 29 -137 50
-180 31 -62 126 -156 190 -188 100 -51 95 -50 1068 -50 501 1 926 4 947 7 59
9 146 45 190 79 92 70 163 190 174 292 3 22 6 45 8 50 2 7 153 10 432 9 236
-1 432 -2 436 -3 3 0 6 -1180 6 -2620 0 -1941 -3 -2621 -12 -2623 -10 -4
-4341 -2 -4357 1 -6 1 -10 5231 -4 5241 2 3 198 5 436 5 426 0 434 -1 436 -20z"/>
<path d="M1975 4809 c-79 -6 -96 -12 -144 -47 -39 -29 -81 -112 -81 -161 0
-93 60 -181 145 -209 46 -16 174 -17 1615 -16 1759 1 1614 -6 1684 76 60 70
70 162 27 246 -23 45 -43 63 -100 92 l-44 22 -1516 2 c-834 0 -1547 -2 -1586
-5z"/>
<path d="M1899 3486 c-96 -34 -149 -113 -145 -217 3 -90 61 -165 152 -196 20
-7 526 -11 1595 -10 1715 0 1611 -4 1677 60 44 42 59 73 68 135 11 84 -32 169
-109 213 l-42 24 -1580 2 c-1266 2 -1587 0 -1616 -11z"/>
<path d="M1885 2169 c-90 -44 -136 -117 -131 -209 4 -87 50 -154 131 -191 38
-18 108 -19 1605 -19 985 0 1578 4 1599 10 192 55 214 317 33 406 -36 18 -99
19 -1617 21 -1546 1 -1581 1 -1620 -18z"/>
</g>
</svg>
